<?xml version="1.0" standalone="no"?>
<svg viewBox="0 0 200 200" xmlns="http://www.w3.org/2000/svg">
  <path fill="#FC8E57" d="M31.2,-53.9C35.5,-39.8,30.7,-24.1,34,-11.6C37.2,0.9,48.6,10.2,49.9,19.3C51.1,28.3,42.2,37.1,32.2,40.6C22.2,44.1,11.1,42.3,2.1,39.4C-6.9,36.6,-13.9,32.6,-27.5,30.3C-41.2,28,-61.6,27.3,-68.1,19.3C-74.6,11.3,-67.3,-4.1,-57.7,-14.1C-48.1,-24.1,-36.2,-28.8,-26.2,-41.1C-16.2,-53.4,-8.1,-73.4,2.7,-77.1C13.4,-80.8,26.9,-68.1,31.2,-53.9Z" transform="translate(100 100)" />
</svg>
