<?xml version="1.0" encoding="utf-8"?>
<!-- Generator: Adobe Illustrator 22.0.0, SVG Export Plug-In . SVG Version: 6.00 Build 0)  -->
<svg version="1.1" id="Layer_1" xmlns="http://www.w3.org/2000/svg" xmlns:xlink="http://www.w3.org/1999/xlink" x="0px" y="0px"
	 viewBox="0 0 480 342" style="enable-background:new 0 0 480 342;" xml:space="preserve">
<style type="text/css">
	.st0{opacity:0.1;}
	.st1{fill:#35C4A6;}
	.st2{opacity:0.5;}
	.st3{fill:#FFFFFF;}
	.st4{fill:#FF5C5B;}
	.st5{fill:#121B46;}
	.st6{fill:#FDB32C;}
	.st7{fill:#CC6F49;}
	.st8{fill:#DFDFDF;}
	.st9{fill:#A1B0CF;}
	.st10{fill:#C4533A;}
	.st11{fill:#ADADAD;}
	.st12{fill:#6DB2E3;}
	.st13{fill:#3CDEBC;}
	.st14{fill:#BCDFFD;}
	.st15{clip-path:url(#SVGID_2_);}
	.st16{fill:#FF9F9E;}
	.st17{fill:#F7BB8B;}
	.st18{fill:#F28766;}
	.st19{fill:#28AD92;}
	.st20{fill:#C4C4C4;}
	.st21{fill:#919191;}
	.st22{fill:#EBEBEB;}
	.st23{fill:#EBA771;}
	.st24{fill:#F08D6E;}
	.st25{fill:#FA9778;}
	.st26{fill:#FA7C55;}
</style>
<g>
	<g class="st0">
		<path d="M96.7,64.5c20.4-16.2,48.3-19.2,72.2-10.2c31.7,12,55,42.3,85.7,56.8c21.6,10.2,46.4,12,69.1,5.1
			c11-3.4,21.7-8.8,33.2-9.2c10.1-0.3,20.1,3.4,28.8,9.3c25.3,17.3,38.1,54.1,29.5,85.4c-4.6,16.8-14.4,31.4-25.8,43.6
			c-23.6,25.3-55,41.7-87.7,46c-18.3,2.4-36.8,1.1-55.1-1.8c-39.7-6.4-78.8-20.9-111.5-46.4C95.8,212.6,57,159.3,71.7,103.7
			C75.8,88.1,84.7,74,96.7,64.5z"/>
		<path d="M403.5,109.4c-1.3-3.3-2.4-7.5-0.2-10.1c0.8-1,2-1.6,3.2-1.9c5.7-1.5,11.3,2.9,15.3,7.6c3.7,4.4,6.9,9.4,9.4,14.8
			c1.3,2.7,2.4,5.6,2.7,8.7c0.3,3.1-0.4,6.3-2.4,8.5C418.4,151.8,407.1,118.5,403.5,109.4z"/>
	</g>
	<g>
		<g>
			<g>
				<path class="st1" d="M296.5,202.9c7.3-7.2,17.2,16.3,20.6,25.2l6.8-7.9c-4.8-5.7-22.1-27.8-7.9-33.4c9.8-3.9,9.5,22.9,9.2,31.9
					l9.2-10.6c-2.4-5.5-13.8-33.7,2-35c10.6-0.8,2.2,25.3-0.7,33.5l9.8-11.3c3.7-8.8,14.2-32,21.3-24.7c10,10.4-11.7,22.6-19.8,26.6
					l-9.4,10.8c8.3-4.9,30.5-17.1,31.8-7c2,15.5-27.3,10.4-33.6,9.1l-10,11.5c7-1.8,36.3-8.7,34.4,2.2c-2.7,15.7-30.2,1.3-35.1-1.4
					l-7.1,8.2c0,0.1,0.1,0.2,0.1,0.3c7.9,1.2,36.3,6.2,30.4,15.3c-8.4,13.1-27.3-9.2-31.5-14.5l-15.8,18.1l-1.8-1.6l16-18.4
					C307.5,225.7,286.2,212.9,296.5,202.9z"/>
				<g>
					<g>
						<path class="st1" d="M334.3,288.2c-8.1,0-15.9-2.2-18.8-8.8c-6.4-14.6,10.7-27.4,21.9-32.7c4.2-2,8.6-3.7,12.9-5.3
							c3.9-1.5,7.9-3,11.8-4.8l0,0c10.2-4.7,19.4-11.1,27.3-19.2c0.5-0.5,1.2-0.6,1.9-0.4c0.7,0.3,1.1,0.9,1,1.6
							c-0.5,11.2-1.2,22.1-5.7,32c-3.4,7.5-8.9,14.7-17.5,22.6c-4.4,4.1-10.4,9.1-17.5,11.9C347.3,286.8,340.7,288.2,334.3,288.2z
							 M362.7,237.9c-3.9,1.8-7.9,3.3-11.9,4.8c-4.2,1.6-8.6,3.3-12.8,5.3c-10.6,5-27,17.2-21.1,30.7c4.9,11.2,26,8.1,34,4.9
							c6.9-2.7,12.7-7.6,17-11.6c8.4-7.7,13.8-14.7,17.1-22.1c4.3-9.7,5.1-20.4,5.6-31.5c0,0,0-0.1-0.1-0.1c-0.1,0-0.1,0-0.1,0
							C382.4,226.6,373.1,233.2,362.7,237.9L362.7,237.9z"/>
					</g>
				</g>
			</g>
			<g>
				<path class="st1" d="M194.9,244.5c-7.3-7.2-17.2,16.3-20.6,25.2l-6.8-7.9c4.8-5.7,22.1-27.8,7.9-33.4
					c-9.8-3.9-9.5,22.9-9.2,31.9l-9.2-10.6c2.4-5.5,13.8-33.7-2-35c-10.6-0.8-2.2,25.3,0.7,33.5l-9.8-11.3
					c-3.7-8.8-14.2-32-21.3-24.7c-10,10.4,11.7,22.6,19.8,26.6l9.4,10.8c-8.3-4.9-30.5-17.1-31.8-7c-2,15.5,27.3,10.4,33.6,9.1
					l10,11.5c-7-1.8-36.3-8.7-34.4,2.2c2.7,15.7,30.2,1.3,35.1-1.4l7.1,8.2c0,0.1-0.1,0.2-0.1,0.3c-7.9,1.2-36.3,6.2-30.4,15.3
					c8.4,13.1,27.3-9.2,31.5-14.5l15.8,18.1l1.8-1.6l-16-18.4C183.9,267.4,205.2,254.6,194.9,244.5z"/>
				<path class="st1" d="M168.6,233c-2-11.1-6-21.8-11.7-31.5c-0.4-0.7,0.3-1.6,1.1-1.3c10.4,3.2,20.9,6.7,29.3,13.5
					c7.4,5.9,12.8,14,17.2,22.4c3.3,6.2,6.1,12.7,7,19.7c1.2,9.7-1.8,30.6-14,32.5c-15.3,2.4-23-17.2-25.2-28.8
					C170.5,250.7,170.1,241.7,168.6,233z"/>
			</g>
		</g>
		<g class="st2">
			<g>
				<g>
					<path class="st3" d="M381.9,66l0-0.8c1.8,0,3.7-0.5,5.2-1.5l0.4,0.7C385.8,65.4,383.9,65.9,381.9,66z M376.2,64.5
						c-1.7-1-3.2-2.4-4.2-4l0.7-0.4c1,1.6,2.3,2.9,3.9,3.8L376.2,64.5z M391.7,60.2l-0.7-0.4c0.9-1.6,1.4-3.4,1.4-5.3
						c0-0.2,0-0.5,0-0.7l0.8-0.1c0,0.2,0,0.5,0,0.7C393.2,56.5,392.7,58.5,391.7,60.2z M370.3,54.9c0-0.1,0-0.2,0-0.4
						c0-1.9,0.5-3.7,1.3-5.3l0.7,0.4c-0.8,1.5-1.2,3.2-1.2,5c0,0.1,0,0.2,0,0.3L370.3,54.9z M390.6,48.7c-1-1.5-2.4-2.8-4.1-3.6
						l0.4-0.7c1.8,0.9,3.3,2.3,4.4,3.9L390.6,48.7z M376,45.5l-0.4-0.7c1.7-1.1,3.6-1.7,5.6-1.8l0,0.8C379.4,44,377.6,44.5,376,45.5
						z"/>
				</g>
			</g>
			<g>
				<g>
					<path class="st3" d="M33.5,245.7c-1.9-0.1-3.9-0.4-5.7-0.8l0.2-0.8c1.8,0.4,3.7,0.7,5.6,0.8L33.5,245.7z M39.3,245.6l-0.1-0.8
						c1.9-0.2,3.7-0.6,5.5-1l0.2,0.8C43.1,245,41.2,245.4,39.3,245.6z M22.3,243.2c-1.8-0.7-3.5-1.6-5.2-2.6l0.4-0.7
						c1.6,1,3.3,1.8,5.1,2.5L22.3,243.2z M50.4,242.5l-0.3-0.7c1.7-0.8,3.4-1.7,4.9-2.8l0.5,0.7C53.8,240.8,52.1,241.7,50.4,242.5z
						 M12.4,237.3c-1.5-1.3-2.8-2.6-4.1-4.1l0.6-0.5c1.2,1.4,2.6,2.8,4,4L12.4,237.3z M59.9,236.1l-0.6-0.6c1.4-1.3,2.6-2.7,3.8-4.2
						l0.6,0.5C62.6,233.3,61.3,234.8,59.9,236.1z M5,228.5c-1-1.7-1.8-3.4-2.6-5.2l0.8-0.3c0.7,1.7,1.5,3.5,2.5,5.1L5,228.5z
						 M66.9,226.9l-0.7-0.4c0.9-1.7,1.6-3.4,2.2-5.2l0.8,0.3C68.6,223.4,67.8,225.2,66.9,226.9z M0.8,217.7
						c-0.4-1.9-0.7-3.8-0.8-5.7l0.8,0c0.1,1.9,0.3,3.8,0.7,5.6L0.8,217.7z M70.6,216l-0.8-0.1c0.3-1.8,0.5-3.7,0.5-5.6
						c0-1.2-0.1-2.3-0.2-3.5l0.8-0.1c0.1,1.2,0.2,2.4,0.2,3.5C71.1,212.2,70.9,214.1,70.6,216z M1,206.3l-0.8-0.1
						c0.2-1.9,0.6-3.8,1.1-5.7l0.8,0.2C1.6,202.6,1.2,204.5,1,206.3z M69.1,201.2c-0.5-1.8-1.1-3.6-1.9-5.3l0.7-0.3
						c0.8,1.8,1.4,3.6,1.9,5.4L69.1,201.2z M4.1,195.5l-0.7-0.3c0.8-1.7,1.8-3.4,2.9-5l0.7,0.5C5.8,192.1,4.9,193.8,4.1,195.5z
						 M64.4,191c-1-1.6-2.2-3.1-3.5-4.4l0.6-0.6c1.3,1.4,2.5,2.9,3.6,4.5L64.4,191z M10.4,186.2l-0.6-0.6c1.3-1.4,2.8-2.7,4.3-3.8
						l0.5,0.7C13.2,183.6,11.7,184.8,10.4,186.2z M56.8,182.7c-1.5-1.2-3.1-2.2-4.7-3.1l0.4-0.7c1.7,0.9,3.3,2,4.8,3.2L56.8,182.7z
						 M19.4,179.4l-0.4-0.7c1.7-0.9,3.5-1.7,5.3-2.3l0.3,0.8C22.8,177.8,21.1,178.6,19.4,179.4z M46.8,177.4
						c-1.8-0.6-3.6-1.1-5.5-1.4l0.1-0.8c1.9,0.3,3.8,0.8,5.6,1.4L46.8,177.4z M30.1,175.9l-0.1-0.8c1.8-0.3,3.7-0.4,5.5-0.4
						c0,0,0,0,0,0l0.2,0l0,0.8l-0.2,0C33.7,175.5,31.9,175.6,30.1,175.9z"/>
				</g>
			</g>
			<g>
				<g>
					<path class="st3" d="M464.6,211.3c-2-0.1-3.9-0.7-5.6-1.6l0.4-0.7c1.6,0.9,3.4,1.4,5.3,1.5L464.6,211.3z M470.4,210.6l-0.3-0.8
						c1.8-0.6,3.3-1.6,4.7-2.8l0.6,0.6C474,208.9,472.3,209.9,470.4,210.6z M454.5,206c-1.2-1.6-2.1-3.3-2.6-5.2l0.8-0.2
						c0.5,1.8,1.3,3.5,2.5,4.9L454.5,206z M478.8,202.8l-0.7-0.3c0.7-1.7,1.1-3.5,1.1-5.4h0.8C480,199,479.6,201,478.8,202.8z
						 M479.1,195.6c-0.2-1.9-0.8-3.6-1.7-5.2l0.7-0.4c1,1.7,1.6,3.6,1.8,5.6L479.1,195.6z M452.4,195l-0.8-0.1c0.3-2,1-3.8,2-5.5
						l0.7,0.4C453.3,191.4,452.6,193.2,452.4,195z M473.7,186.2c-1.5-1.1-3.2-1.9-5-2.3l0.2-0.8c1.9,0.4,3.7,1.3,5.3,2.5
						L473.7,186.2z M458.1,185.9l-0.5-0.7c1.6-1.1,3.5-1.9,5.4-2.2l0.1,0.8C461.4,184.1,459.7,184.8,458.1,185.9z"/>
				</g>
			</g>
			<g>
				<g>
					<path class="st3" d="M360.1,43.5c0,2.7-2.2,4.9-4.9,4.9c-2.7,0-4.9-2.2-4.9-4.9c0-2.7,2.2-4.9,4.9-4.9
						C357.9,38.6,360.1,40.8,360.1,43.5z"/>
				</g>
			</g>
			<g>
				<g>
					<path class="st3" d="M40.4,162.4c0,2.5-2,4.5-4.5,4.5c-2.5,0-4.5-2-4.5-4.5s2-4.5,4.5-4.5C38.4,157.9,40.4,159.9,40.4,162.4z"
						/>
				</g>
			</g>
			<g>
				<g>
					<circle class="st3" cx="454.1" cy="180.8" r="3.3"/>
				</g>
			</g>
			<g>
				<g>
					<path class="st3" d="M174.5,47.1c0,1.6-1.3,2.9-2.9,2.9c-1.6,0-2.9-1.3-2.9-2.9s1.3-2.9,2.9-2.9
						C173.2,44.3,174.5,45.6,174.5,47.1z"/>
				</g>
			</g>
		</g>
		<g>
			<path class="st3" d="M156.1,91.3h-27.4c-1.8,0-3.3,1.5-3.3,3.3v17.7c0,1.8,1.5,3.3,3.3,3.3h8.2l2.6,4.5l3,5.1l3-5.1l2.6-4.5h8.2
				c1.8,0,3.3-1.5,3.3-3.3V94.5C159.4,92.7,157.9,91.3,156.1,91.3z"/>
			<path class="st4" d="M137,142.2c-5.7-3.5-9.3,3.4-9.3,3.4c0,0-3.6-6.9-9.3-3.4c-6.6,4.1-0.1,16.9,9.3,20l0,0c0,0,0,0,0,0
				c0,0,0,0,0,0l0,0C137.1,159.1,143.5,146.3,137,142.2z"/>
			<g>
				<g>
					<path class="st3" d="M99,105.3c2.4,0.3,4.8,0.3,7.2,0c0.6-0.1,1.2-0.1,1.7-0.5c0.5-0.3,0.8-0.8,0.7-1.4c0.4,0,0.8-0.3,1.1-0.6
						c0.1-0.1,0.3-0.3,0.3-0.4c0.1-0.2,0.1-0.4,0.1-0.6c0-0.6-0.3-1.2-0.9-1.6c0.5-0.2,0.9-0.6,1.1-1.1c0.2-0.5,0-1.1-0.3-1.5
						c-0.2-0.3-0.5-0.4-0.8-0.5c0.2-0.2,0.6-0.3,0.7-0.6c0.3-0.4,0.1-0.9-0.2-1.2c-0.3-0.3-0.8-0.4-1.2-0.4c-0.8-0.1-1.6,0-2.4,0.1
						c-0.8,0-1.7-0.1-2.4-0.5c-0.2-1,0.1-2.1-0.2-3.2c-0.3-1.3-1.5-2.2-2.8-2.3c-0.2,0-0.5,0-0.7,0.2c-0.1,0.1-0.1,0.3-0.1,0.5
						c0,0.8,0.3,1.7,0.5,2.5c0.2,0.8,0.2,1.8-0.2,2.4c-0.2,0.3-0.4,0.5-0.6,0.8c-0.2,0.4-0.2,0.9-0.3,1.3c-0.1,0.4-0.5,0.9-0.9,0.9
						L99,105.3z"/>
				</g>
				<g>
					<g>
						<path class="st5" d="M98.6,106.1h-2.8c-0.2,0-0.4-0.2-0.4-0.4v-9.9c0-0.2,0.2-0.4,0.4-0.4h2.8c0.2,0,0.4,0.2,0.4,0.4v9.9
							C99,106,98.8,106.1,98.6,106.1z"/>
					</g>
					<g>
						<circle class="st3" cx="97.1" cy="96.8" r="0.4"/>
					</g>
				</g>
			</g>
			<g>
				<path class="st6" d="M389.5,121.2h-27.4c-1.8,0-3.3,1.5-3.3,3.3v17.7c0,1.8,1.5,3.3,3.3,3.3h8.2l2.6,4.5l3,5.1l3-5.1l2.6-4.5
					h8.2c1.8,0,3.3-1.5,3.3-3.3v-17.7C392.8,122.7,391.3,121.2,389.5,121.2z"/>
				<g>
					<g>
						<path class="st3" d="M373.6,141.2c2.4,0.3,4.8,0.3,7.2,0c0.6-0.1,1.2-0.1,1.7-0.5c0.5-0.3,0.8-0.8,0.7-1.4
							c0.4,0,0.8-0.3,1.1-0.6c0.1-0.1,0.3-0.3,0.3-0.4c0.1-0.2,0.1-0.4,0.1-0.6c0-0.6-0.3-1.2-0.9-1.6c0.5-0.2,0.9-0.6,1.1-1.1
							c0.2-0.5,0-1.1-0.3-1.5c-0.2-0.3-0.5-0.4-0.8-0.5c0.2-0.2,0.6-0.3,0.7-0.6c0.3-0.4,0.1-0.9-0.2-1.2c-0.3-0.3-0.8-0.4-1.2-0.4
							c-0.8-0.1-1.6,0-2.4,0.1c-0.8,0-1.7-0.1-2.4-0.5c-0.2-1,0.1-2.1-0.2-3.2c-0.3-1.3-1.5-2.2-2.8-2.3c-0.2,0-0.5,0-0.7,0.2
							c-0.1,0.1-0.1,0.3-0.1,0.5c0,0.8,0.3,1.7,0.5,2.5c0.2,0.8,0.2,1.8-0.2,2.4c-0.2,0.3-0.4,0.5-0.6,0.8c-0.2,0.4-0.2,0.9-0.3,1.3
							c-0.1,0.4-0.5,0.9-0.9,0.9L373.6,141.2z"/>
					</g>
					<g>
						<g>
							<path class="st5" d="M373.2,142.1h-2.8c-0.2,0-0.4-0.2-0.4-0.4v-9.9c0-0.2,0.2-0.4,0.4-0.4h2.8c0.2,0,0.4,0.2,0.4,0.4v9.9
								C373.6,141.9,373.5,142.1,373.2,142.1z"/>
						</g>
						<g>
							<path class="st3" d="M372.2,132.8c0,0.2-0.2,0.4-0.4,0.4c-0.2,0-0.4-0.2-0.4-0.4c0-0.2,0.2-0.4,0.4-0.4
								C372,132.3,372.2,132.5,372.2,132.8z"/>
						</g>
					</g>
				</g>
			</g>
		</g>
		<g>
			<g>
				<g>
					<path class="st7" d="M375.1,288.2h-8c0.6,4.9,1.1,8.6,1.3,10.2c0,0-5.6,3.8-9.3,3.3c-0.2,0-0.4,0-0.6,0.2
						c-0.2,0.2-0.3,0.6,0.1,1.1c0.1,0.1,0.3,0.2,0.4,0.2h15c0.6,0,1-0.4,1.1-1c0.1-0.7,0.2-2.2-0.3-3.6L375.1,288.2z"/>
					<path class="st5" d="M366.3,299.7c0,0,1.3,0.9,1.5,1.8c0.1,0.5,1.5,0.4,2.9,0.2c1.4-0.2,2.8-0.8,3.9-1.6
						c0.2-0.2,0.4-0.3,0.6-0.2c0.5,0.1,0.5,3.2-0.2,3.5c-0.6,0.2-14.3,0-16.5,0c-0.2,0-0.3-0.1-0.3-0.3c0-0.5,0.1-1.6,0.9-1.7
						C360.3,301.2,366.3,299.7,366.3,299.7z"/>
				</g>
				<g>
					<path class="st7" d="M393.5,288.2h-8l2,10.5c-0.2,1.4,0.2,2.9,0.4,3.6c0.2,0.6,0.7,1,1.3,1h12.5c0-0.5,0-1.1,0-1.6
						c-3.5-0.7-7.7-3.2-7.7-3.2C393.9,296.8,393.7,293.1,393.5,288.2z"/>
					<path class="st5" d="M396.4,299.7c0,0-1.3,0.9-1.5,1.8c-0.1,0.5-1.5,0.4-2.9,0.2c-1.4-0.2-2.8-0.8-3.9-1.6
						c-0.2-0.2-0.4-0.3-0.6-0.2c-0.5,0.1-0.5,3.2,0.2,3.5c0.6,0.2,14.3,0,16.5,0c0.2,0,0.3-0.1,0.3-0.3c0-0.5-0.1-1.6-0.9-1.7
						C402.4,301.2,396.4,299.7,396.4,299.7z"/>
				</g>
			</g>
			<g>
				<g>
					<path class="st6" d="M365.6,194.8c0,0-4.6,4.2-4.2,7.6c0.4,3.4,3.5,13.8,2.6,20.8c-1,7.1-3.1,13.2-2.6,20.7
						c0.5,7.5,5.2,49,5.2,49s10.5-3.5,14.2-1.9c3.7,1.6,13.8,3,15.1,2.5c0,0-2.3-56-9.9-66.5c0,0-1.4-15.1,0-18.4
						c1.3-3.4-0.3-12.7-3.7-13.8C378.9,193.7,365.6,194.8,365.6,194.8z"/>
					<g>
						<g>
							<path class="st5" d="M369,200c2.6-0.5,5.1-0.8,7.6-1.2c1.3-0.2,2.5-0.5,3.7-0.7c1.2-0.3,2.5-0.6,3.7-1
								c-2.1,1.6-4.7,2.4-7.3,2.8c-1.3,0.2-2.6,0.3-3.9,0.4C371.6,200.3,370.3,200.3,369,200z"/>
						</g>
						<g>
							<path class="st5" d="M371.9,266.8c1.7-2.3,3.4-4.4,5.1-6.6c1.7-2.2,3.3-4.4,5-6.7c-0.9,2.7-2.4,5.1-4.1,7.4
								C376.2,263.1,374.2,265.2,371.9,266.8z"/>
						</g>
						<g>
							<path class="st5" d="M377.3,265.7c0.2-1.3,0.8-2.4,1.4-3.4c0.6-1,1.3-2,2.4-2.8c-0.2,1.3-0.8,2.4-1.4,3.4
								C379,263.9,378.3,264.9,377.3,265.7z"/>
						</g>
					</g>
				</g>
				<g>
					<g>
						<g>
							<path class="st7" d="M377.5,224.1c0.1-0.6-4.2-1.8-4.1-2.2c0.1-0.4,1.2-0.5,1.8-0.5c0.1,0,0.2-0.1,0.2-0.2
								c0-0.2-0.2-0.6-0.8-0.6c-0.8-0.1-2.3-0.2-4.1,0.3c0,0,0,0,0,0c-0.2-0.1-2.1-1.2-4.9-2.7c-0.5,1.7-1,3.4-1.6,5
								c1.9,0.4,3.8,0.6,5.7,0.8v0l0,0c1,1,3.6,3.2,5,3.7c0.1,0,0.2-0.1,0.2-0.2c-0.1-0.2-0.4-0.7-1.4-1.5c0,0,2.5,1,3,0.9
								c0.5-0.2-2.5-2-2.5-2s2.9,0.9,3.2,0.6c0.3-0.3-2.8-1.7-2.8-1.7S377.5,224.3,377.5,224.1z"/>
							<path class="st6" d="M364.2,196.1c0,0-5.9,6.1-9.3,10.8c-3.3,4.7-4,7.3-3.2,10.2c0.8,2.9,5.9,4.6,7.4,5.1
								c1.5,0.5,8.9,1.8,8.9,1.8l1.2-4.4l-8.5-4.9l8.7-12.5L364.2,196.1z"/>
						</g>
						<g>
							<g>
								<path class="st5" d="M357.6,213.7c0.6-0.1,1.2,0,1.7,0.1c0.5,0.1,1.1,0.3,1.6,0.5l-0.7,0.8c-0.3-0.6-0.6-1.3-0.6-2.1
									c0.7,0.4,1.2,1,1.6,1.5l1,1.3l-1.7-0.5c-0.5-0.2-1-0.4-1.5-0.6C358.4,214.4,358,214.1,357.6,213.7z"/>
							</g>
							<g>
								<path class="st5" d="M365.1,209.9c0.3-0.9,0.8-1.5,1.3-2.1c0.6-0.5,1.2-1,2.1-1.3c-0.3,0.9-0.8,1.5-1.3,2.1
									C366.6,209.2,366,209.7,365.1,209.9z"/>
							</g>
						</g>
					</g>
					<g>
						<path class="st8" d="M387,226.5h-25.8v-15c0-0.9,0.7-1.7,1.7-1.7h22.4c0.9,0,1.7,0.7,1.7,1.7V226.5z"/>
						<rect x="361.3" y="226.3" class="st9" width="25.8" height="1.9"/>
						<path class="st3" d="M376.5,218.9c0,1.3-1,2.3-2.3,2.3s-2.3-1-2.3-2.3s1-2.3,2.3-2.3S376.5,217.6,376.5,218.9z"/>
					</g>
				</g>
				<g>
					<g>
						<path class="st7" d="M388.5,223l-0.4-0.5c-0.1,0-0.2,0-0.3,0.1c-0.2-0.1-0.3-0.2-0.5-0.3c-0.1,0.3-0.2,0.4-0.3,0.5
							c0,0,0,0,0,0c-1.8,0.5-3,1.5-3.6,2c-0.5,0.4-0.4,0.7-0.3,1c0.1,0.1,0.2,0.1,0.3,0.1c0.5-0.3,1.5-0.8,1.8-0.6
							c0.4,0.3-2.6,3.6-2.2,4.1c0.2,0.2,2.3-2.1,2.3-2.1s-1.9,2.9-1.4,3c0.4,0.1,2.4-2.3,2.4-2.3s-1.5,3.1-1,3c0.5-0.1,2-2.3,2-2.3
							c-0.4,1.2-0.4,1.8-0.4,2c0,0.1,0.2,0.2,0.2,0.1c0.9-1.1,1.8-4.4,2.2-5.8l0,0l0,0c0.3-0.2,0.6-0.5,1-0.8
							C389.7,223.8,389.1,223.4,388.5,223z"/>
						<path class="st6" d="M383.4,195.7c0,0,2.3,1,3.6,1.8c1.3,0.8,13.5,11.2,13.6,14.2c0.1,3-10.7,13.5-10.7,13.5l-2.8-2.8l4.4-9.1
							l-11.9-11L383.4,195.7z"/>
					</g>
					<g>
						<g>
							<path class="st5" d="M393,211.2c0,0.5-0.2,0.9-0.3,1.3c-0.2,0.4-0.4,0.7-0.7,1.1l-0.9,1.1l-0.1-1.4c0-0.3,0-0.7,0-1
								c0.1-0.3,0.1-0.7,0.3-1c0.2,0.3,0.4,0.6,0.5,1c0.1,0.3,0.2,0.7,0.2,1l-1-0.3c0.2-0.4,0.5-0.7,0.8-1
								C392.2,211.6,392.5,211.4,393,211.2z"/>
						</g>
						<g>
							<path class="st5" d="M387.7,221.9c0.8,0,1.3,0.3,1.8,0.6c0.5,0.4,0.9,0.8,1.1,1.6c-0.8,0-1.3-0.3-1.8-0.6
								C388.3,223.1,387.8,222.6,387.7,221.9z"/>
						</g>
						<polygon class="st5" points="386,208.2 382,206.1 385.7,209.7 						"/>
					</g>
				</g>
			</g>
			<g>
				<g>
					<path class="st7" d="M383.1,182.2c-0.2-0.7-1-1.3-1.7-1.1c0.3-9.9-7.9-8.5-7.9-8.5c-5.2,0.4-5.7,5.9-5.7,8.7
						c-0.2-0.1-0.3-0.2-0.4-0.2c-0.8-0.2-1.5,0.4-1.7,1.1c-0.2,0.6-0.1,1.2,0.3,1.7c0.3,0.4,0.7,0.8,1.2,1c0.1,0,0.5,0.1,0.9,0.1
						c0.8,6.4,6.6,5.8,6.6,5.8c5.1,0.3,6.4-3.3,6.7-5.8c0.2,0,0.3-0.1,0.4-0.1c0.5-0.2,0.9-0.6,1.2-1
						C383.1,183.4,383.2,182.8,383.1,182.2z"/>
					<g>
						<g>
							<circle class="st10" cx="378.7" cy="184.7" r="1.7"/>
							<circle class="st10" cx="370.4" cy="184.7" r="1.7"/>
						</g>
						<g>
							<g>
								<g>
									<ellipse class="st5" cx="376.6" cy="181.5" rx="0.5" ry="1"/>
									<path class="st5" d="M377.6,180.2c-0.1,0.2-0.2,0.3-0.3,0.4c-0.1,0.1-0.3,0.2-0.5,0.3l0,0c-0.1,0-0.2,0-0.2-0.1
										c0-0.1,0-0.2,0.1-0.2c0,0,0,0,0,0C377,180.5,377.3,180.4,377.6,180.2L377.6,180.2C377.5,180.1,377.6,180.1,377.6,180.2
										C377.6,180.2,377.6,180.2,377.6,180.2z"/>
								</g>
								<g>
									<ellipse class="st5" cx="372.5" cy="181.5" rx="0.5" ry="1"/>
									<path class="st5" d="M371.6,180.2c0.2,0.2,0.5,0.4,0.8,0.4c0.1,0,0.2,0.1,0.2,0.2c0,0.1-0.1,0.2-0.2,0.2c0,0,0,0,0,0l0,0
										c-0.2,0-0.4-0.1-0.5-0.3C371.7,180.5,371.6,180.4,371.6,180.2C371.5,180.2,371.5,180.1,371.6,180.2
										C371.6,180.1,371.6,180.1,371.6,180.2L371.6,180.2z"/>
								</g>
							</g>
						</g>
						<g>
							<g>
								<path class="st5" d="M376.3,184.4c-0.2,0.3-0.4,0.6-0.7,0.8c-0.3,0.2-0.7,0.4-1.1,0.4c-0.4,0-0.8-0.1-1.1-0.4
									c-0.2-0.1-0.3-0.2-0.4-0.4c-0.1-0.1-0.2-0.3-0.3-0.4c0.1,0.1,0.3,0.2,0.4,0.3c0.2,0.1,0.3,0.2,0.4,0.3
									c0.3,0.2,0.6,0.3,0.9,0.3c0.3,0,0.6-0.1,0.9-0.3C375.8,184.9,376.1,184.7,376.3,184.4z"/>
								<path class="st5" d="M375.1,186.2c-0.1,0.1-0.3,0.2-0.5,0.2c-0.2,0-0.4-0.1-0.5-0.2c0.2,0,0.3,0.1,0.5,0.1
									C374.7,186.2,374.9,186.2,375.1,186.2z"/>
							</g>
						</g>
						<g>
							<g>
								<path class="st5" d="M373.4,178.1c-0.2-0.2-0.5-0.3-0.7-0.3c-0.3,0-0.5,0-0.8,0.1c-0.3,0.1-0.5,0.2-0.7,0.4
									c-0.2,0.2-0.4,0.4-0.5,0.6c-0.1,0.1,0,0.2,0.1,0.3c0.1,0,0.2,0,0.3,0l0,0c0.2-0.1,0.3-0.3,0.5-0.4c0.2-0.1,0.3-0.2,0.5-0.2
									c0.2,0,0.4-0.1,0.6-0.1c0.2,0,0.4,0,0.6,0l0.1,0c0.1,0,0.2-0.2,0.2-0.3C373.4,178.2,373.4,178.1,373.4,178.1z"/>
								<path class="st5" d="M375.7,178.1c0.2-0.2,0.5-0.3,0.7-0.3c0.3,0,0.5,0,0.8,0.1c0.3,0.1,0.5,0.2,0.7,0.4
									c0.2,0.2,0.4,0.4,0.5,0.6c0.1,0.1,0,0.2-0.1,0.3c-0.1,0-0.2,0-0.3,0l0,0c-0.2-0.1-0.3-0.3-0.5-0.4c-0.2-0.1-0.3-0.2-0.5-0.2
									c-0.2,0-0.4-0.1-0.6-0.1c-0.2,0-0.4,0-0.6,0l-0.1,0c-0.1,0-0.2-0.2-0.2-0.3C375.7,178.2,375.7,178.1,375.7,178.1z"/>
							</g>
						</g>
						<path class="st5" d="M374.7,180c0.1,0.4,0.1,0.7,0.2,1.1c0.1,0.4,0.1,0.7,0.2,1.1c0,0.1,0.1,0.2,0.1,0.3
							c0,0.1,0.1,0.2,0.1,0.3c0,0.2-0.1,0.5-0.3,0.6c-0.2,0.1-0.4,0.1-0.6,0c-0.2-0.1-0.4-0.2-0.5-0.3c0.3,0.1,0.7,0.2,1,0
							c0.1-0.1,0.2-0.2,0.2-0.3c0-0.1,0-0.1-0.1-0.2c0-0.1-0.1-0.2-0.1-0.3c-0.1-0.4-0.2-0.7-0.2-1.1
							C374.6,180.8,374.6,180.4,374.7,180z"/>
						<path class="st5" d="M366.2,182.8c0-0.2,0.1-0.5,0.3-0.6c0.2-0.2,0.5-0.2,0.7-0.1c0.2,0.1,0.4,0.2,0.6,0.4
							c0.2,0.2,0.3,0.4,0.4,0.6c0,0.1,0,0.2-0.1,0.2c-0.1,0-0.1,0-0.2,0l0,0c-0.2-0.2-0.4-0.3-0.5-0.4c-0.1,0-0.2,0-0.2,0
							c-0.1,0-0.1,0.1-0.2,0.3c-0.1,0.2-0.1,0.5,0,0.6c0.2,0.1,0.5,0.1,0.7,0c-0.2,0.1-0.5,0.2-0.8,0.1c-0.2,0-0.3-0.2-0.3-0.4
							c0-0.2,0-0.3,0-0.4c0-0.1,0.1-0.3,0.2-0.4c0.1-0.1,0.3-0.1,0.5-0.1c0.3,0.1,0.5,0.3,0.7,0.5l-0.3,0.2
							c-0.1-0.4-0.4-0.8-0.7-0.9c-0.2-0.1-0.4-0.1-0.6,0C366.3,182.3,366.2,182.6,366.2,182.8z"/>
						<path class="st5" d="M382.7,182.8c0-0.2-0.1-0.5-0.3-0.6c-0.2-0.2-0.5-0.2-0.7-0.1c-0.2,0.1-0.4,0.2-0.6,0.4
							c-0.2,0.2-0.3,0.4-0.4,0.6c0,0.1,0,0.2,0.1,0.2c0.1,0,0.1,0,0.2,0l0,0c0.2-0.2,0.4-0.3,0.5-0.4c0.1,0,0.2,0,0.2,0
							c0.1,0,0.1,0.1,0.2,0.3c0.1,0.2,0.1,0.5,0,0.6c-0.2,0.1-0.5,0.1-0.7,0c0.2,0.1,0.5,0.2,0.8,0.1c0.2,0,0.3-0.2,0.3-0.4
							c0-0.2,0-0.3,0-0.4c0-0.1-0.1-0.3-0.2-0.4c-0.1-0.1-0.3-0.1-0.5-0.1c-0.3,0.1-0.5,0.3-0.7,0.5l0.3,0.2
							c0.1-0.4,0.4-0.8,0.7-0.9c0.2-0.1,0.4-0.1,0.6,0C382.5,182.3,382.6,182.6,382.7,182.8z"/>
					</g>
				</g>
				<g>
					<path class="st5" d="M384.5,195.7C384.4,195.7,384.4,195.7,384.5,195.7c-1.9-0.5-2.9-2.5-2.6-4.3c0.6-3.3,1.7-9.1,1.5-10.8
						c-0.3-2.3-1.8-8.9-8-9.4c-6.1-0.5-9.9,3.6-10.6,9.5c-0.7,5.9,1.2,12.3,1.2,12.3c-0.1,0.9-3.2,3.9-4.1,4.7
						c-0.1,0.1-0.1,0.3,0.1,0.3c9.3,2.9,19.8-1,22.5-2.1C384.7,196,384.7,195.7,384.5,195.7z M374.5,190.4c-3.6,0-6.4-3.3-6.4-7.5
						c0-4.1,2.9-7.5,6.4-7.5c3.6,0,6.4,3.3,6.4,7.5C381,187.1,378.1,190.4,374.5,190.4z"/>
					<g>
						<g>
							<path class="st3" d="M363.1,197.8c2.7-1.1,5.3-2.2,7.8-3.5c1.3-0.6,2.5-1.3,3.7-2.1c1.2-0.8,2.3-1.6,3.4-2.6
								c-0.7,1.3-1.7,2.4-2.9,3.3c-1.1,0.9-2.4,1.7-3.7,2.4c-1.3,0.7-2.7,1.2-4.1,1.6C366,197.3,364.5,197.7,363.1,197.8z"/>
						</g>
						<g>
							<path class="st3" d="M370.6,189.4c-0.9-0.2-1.7-0.7-2.4-1.4c-0.7-0.6-1.2-1.4-1.6-2.3c-0.3-0.9-0.6-1.8-0.5-2.7
								c0-0.9,0.3-1.8,0.6-2.6c0.1,0.9,0.1,1.8,0.3,2.6c0.1,0.8,0.4,1.6,0.7,2.4c0.3,0.8,0.7,1.5,1.2,2.1
								C369.4,188.1,369.9,188.8,370.6,189.4z"/>
						</g>
						<path class="st3" d="M369.4,178.4c0,0,5.4-2.5,10.3,0C379.7,178.4,374.7,170.5,369.4,178.4z"/>
					</g>
				</g>
			</g>
		</g>
		<g>
			<g>
				<g>
					<g>
						<path class="st8" d="M316.8,303.4H199c-11.3,0-20.4-9.1-20.4-20.4V74.5c0-11.3,9.1-20.4,20.4-20.4h117.8
							c11.3,0,20.4,9.1,20.4,20.4V283C337.2,294.3,328,303.4,316.8,303.4z"/>
						<rect x="239.5" y="60.1" class="st11" width="36.8" height="2.7"/>
						<rect x="240.4" y="289.5" class="st11" width="34.9" height="7.1"/>
					</g>
					<g>
						<rect x="182.4" y="70.2" class="st3" width="151" height="214.8"/>
						<rect x="182.4" y="70.2" class="st5" width="151" height="8.2"/>
					</g>
				</g>
				<g>
					<circle class="st12" cx="195.8" cy="222.4" r="6.1"/>
					<circle class="st13" cx="195.8" cy="272.9" r="6.1"/>
					<circle class="st12" cx="212.6" cy="222.4" r="6.1"/>
					<rect x="222" y="217.7" class="st14" width="32.3" height="3.1"/>
					<g>
						<g>
							<rect x="190.8" y="232.4" class="st14" width="134.1" height="3.1"/>
							<rect x="190.8" y="238.9" class="st14" width="134.1" height="3.1"/>
							<rect x="190.8" y="245.3" class="st14" width="32.3" height="3.1"/>
						</g>
					</g>
					<rect x="204.3" y="267.9" class="st14" width="32.3" height="3.1"/>
					
						<ellipse transform="matrix(0.2306 -0.973 0.973 0.2306 46.3133 273.0433)" class="st4" cx="195.8" cy="107.2" rx="6.1" ry="6.1"/>
					<rect x="204.3" y="102.3" class="st14" width="32.3" height="3.1"/>
					<rect x="222" y="223.6" class="st14" width="52" height="3.1"/>
				</g>
			</g>
			<g>
				<rect x="182.4" y="115.4" class="st4" width="151" height="98.1"/>
				<g>
					<defs>
						<polygon id="SVGID_1_" points="333.4,213.5 182.4,213.5 182.4,194.2 153.5,134.3 170.9,85.1 339.6,81.3 333.4,192.8 						"/>
					</defs>
					<clipPath id="SVGID_2_">
						<use xlink:href="#SVGID_1_"  style="overflow:visible;"/>
					</clipPath>
					<g class="st15">
						<g>
							<path class="st16" d="M291.5,222.3c-4.9,0-9.8-2.2-13.6-4c-5-2.3-8.3-8.6-7.2-14c0.7-3.7,3.5-6.9,6.9-7.9
								c0.4-0.1,0.7-0.2,1.1-0.3c0.6-0.1,1.1-0.2,1.6-0.4c1.9-0.7,3.3-2.7,3.9-5.1c0.5-2.1,0.4-4.4,0.2-6.6l0-0.4
								c-0.2-3.8-0.3-7.8,1-11.5c1.3-3.4,4.4-6.9,8.6-7.3c0.5,0,1,0,1.5,0c0.7,0,1.3,0,2-0.1c3-0.5,4.9-3.7,6.4-6.2
								c1.5-2.5,4-5.9,7.5-5.8c2.2,0,4.3,1.5,5.3,3.7c0.9,1.9,0.9,4.2,0.2,6.5c-0.2,0.6-0.5,1.3-0.7,1.9c-0.8,2-1.5,3.9-0.8,5.7
								c0.3,0.8,0.9,1.4,1.6,2.1c0.2,0.2,0.5,0.5,0.7,0.8c3.2,3.7,3.6,9.5,1,13.6c-1.7,2.7-4.5,4.6-7.1,6.4
								c-3.4,2.3-6.5,4.5-7.6,8.1c-0.6,1.9-0.4,3.8-0.3,5.9c0.1,1.8,0.3,3.6-0.1,5.4c-0.7,3.6-3.4,6.8-7.1,8.3
								C294.9,222,293.2,222.3,291.5,222.3z M294.9,165.6c-0.3,0-0.5,0-0.8,0c-3.8,0.3-6.7,3.6-7.9,6.7c-1.3,3.5-1.2,7.4-1,11.1
								l0,0.4c0.1,2.3,0.3,4.6-0.2,6.8c-0.6,2.7-2.3,4.9-4.4,5.7c-0.6,0.2-1.2,0.4-1.8,0.5c-0.4,0.1-0.7,0.2-1.1,0.3l0,0
								c-3.1,0.9-5.6,3.8-6.3,7.3c-1,5,2.1,11,6.8,13.1c5.1,2.3,12,5.5,18,3c3.4-1.4,5.9-4.4,6.6-7.7c0.3-1.7,0.2-3.5,0.1-5.2
								c-0.1-2.1-0.3-4.2,0.3-6.2c1.2-3.9,4.6-6.3,7.9-8.5c2.6-1.8,5.3-3.6,6.9-6.2c2.4-3.8,2-9.2-1-12.6c-0.2-0.2-0.4-0.5-0.7-0.7
								c-0.7-0.7-1.4-1.4-1.8-2.4c-0.9-2.1,0-4.2,0.8-6.3c0.2-0.6,0.5-1.3,0.7-1.9c0.7-2.1,0.6-4.3-0.1-6c-0.9-1.9-2.7-3.2-4.6-3.3
								c-3.1,0-5.4,3.1-6.8,5.4c-1.6,2.7-3.6,6-7,6.5c-0.7,0.1-1.4,0.1-2.1,0.1C295.3,165.6,295.1,165.6,294.9,165.6z"/>
						</g>
						<g>
							<path class="st16" d="M318.9,147.9c-1.5,0-2.8-1.2-2.8-2.8c0-1.5,1.2-2.8,2.8-2.8s2.8,1.2,2.8,2.8
								C321.6,146.7,320.4,147.9,318.9,147.9z M318.9,143.2c-1.1,0-1.9,0.9-1.9,1.9s0.9,1.9,1.9,1.9s1.9-0.9,1.9-1.9
								S320,143.2,318.9,143.2z"/>
						</g>
						<g>
							<path class="st16" d="M306.7,133.4c0,0.6-0.5,1-1,1c-0.6,0-1-0.5-1-1c0-0.6,0.5-1,1-1C306.3,132.4,306.7,132.8,306.7,133.4z"
								/>
						</g>
						<g>
							<circle class="st16" cx="196.9" cy="192.4" r="1.3"/>
						</g>
						<g>
							<path class="st16" d="M318.7,199.6c-1.4,0-2.6-1.1-2.6-2.6c0-1.4,1.1-2.6,2.6-2.6s2.6,1.1,2.6,2.6
								C321.2,198.5,320.1,199.6,318.7,199.6z M318.7,195.3c-1,0-1.7,0.8-1.7,1.7c0,1,0.8,1.7,1.7,1.7c1,0,1.7-0.8,1.7-1.7
								C320.4,196.1,319.6,195.3,318.7,195.3z"/>
						</g>
					</g>
					<g class="st15">
						<g>
							<path class="st5" d="M235.3,192c0,0-7.9,13.1-10.2,24.4h53.3c0,0-4.1-19.6-8.7-24.3L235.3,192z"/>
							<g>
								<g>
									<path class="st3" d="M234,195.8c1.5-0.1,3.1-0.2,4.6-0.3l4.6-0.2c3.1-0.1,6.2-0.1,9.3-0.1c3.1,0,6.2,0,9.3,0.1l4.6,0.2
										c1.5,0.1,3.1,0.2,4.6,0.3c-1.5,0.1-3.1,0.2-4.6,0.3l-4.6,0.2c-3.1,0.1-6.2,0.1-9.3,0.1c-3.1,0-6.2,0-9.3-0.1l-4.6-0.2
										C237.1,196,235.5,196,234,195.8z"/>
								</g>
								<g>
									<path class="st3" d="M239.4,196.1c-0.1,1.1-0.5,2.1-0.9,3c-0.4,1-1,1.9-1.7,2.7c-0.7,0.8-1.6,1.6-2.6,2
										c-1,0.4-2.2,0.5-3.2,0.1c1.1-0.1,2-0.4,2.8-0.9c0.8-0.5,1.5-1.2,2.1-1.9C237.2,199.6,238.2,197.9,239.4,196.1z"/>
								</g>
								<g>
									<path class="st3" d="M255.3,195.7c0.2,2.6,0.3,5.2,0.4,7.9c0.1,2.6,0.2,5.2,0.2,7.9l0,0.2l-0.2,0.2l-4.3,4.3l-1,1l0-1.4
										c0-3.3,0-6.6,0.1-10c0.1-3.3,0.2-6.6,0.4-10c0.2,3.3,0.3,6.6,0.4,10c0.1,3.3,0.1,6.6,0.1,10l-1-0.4l4.3-4.3l-0.2,0.4
										c0-2.6,0.1-5.2,0.2-7.9C255,201,255.2,198.4,255.3,195.7z"/>
								</g>
								<g>
									<path class="st3" d="M267.4,195.8c0.2,1,0.4,1.9,0.6,2.7c0.3,0.9,0.6,1.7,1.1,2.4c0.5,0.7,1.1,1.2,1.9,1.6
										c0.8,0.4,1.7,0.5,2.7,0.6c-0.9,0.3-1.9,0.5-2.9,0.3c-1-0.2-2-0.9-2.6-1.8c-0.6-0.9-0.9-1.9-1-2.9
										C267,197.7,267.1,196.8,267.4,195.8z"/>
								</g>
							</g>
						</g>
						<g>
							<g>
								<g>
									<g>
										<g>
											<path class="st17" d="M296.6,138.2l-6.6,0.2c0,0-2.1,9.7-5,22.6c-1-1.5-1.9-3-2.7-4.3c-2.9,5.7-6.5,11.1-10.4,16.3
												c2.2,3.7,4.7,7.8,7.6,12c0,0.1,0.1,0.1,0.1,0.2c5.1,7.5,16.8,4.7,18-4.2c0-0.1,0-0.2,0-0.3
												C299.4,167.2,299.7,152.4,296.6,138.2z"/>
											<path class="st18" d="M292.7,128.5c-0.1-1.7-0.4-3.5-0.7-3.4c-0.5,0.1-0.7,1.3-0.9,2.8
												C291.6,128,292.2,128.3,292.7,128.5z"/>
											<path class="st18" d="M295.4,130.6c0-1.8-0.2-5.4-0.8-5.8c-0.5-0.3-1,2-1.4,4C294.1,129.4,294.9,130,295.4,130.6z"/>
											<path class="st17" d="M300,128.2c-0.4,0.3-1.2,1.2-2.1,3.7c0,0,0.6-5.6,0-6.4c-0.5-0.6-1.8,3.6-2.3,5.4
												c0.3,0.4,0.6,0.9,0.7,1.4c0.2,0.7,0.2,1.4,0.2,2c0.8,2.1-0.5,4.6-2.8,5.4c-0.9,0.3-1.8,0.3-2.7,0.2
												c-0.7,0.2-1.4,0.3-2.1,0.2c0.5,0.9,1.1,1.8,1.9,2.7l4.6-0.9c0,0,5-9.5,5.1-13.4C300.5,128.2,300.2,128,300,128.2z"/>
										</g>
										<g>
											<g>
												<path class="st5" d="M284,171.2c-0.2-1.7-0.1-3.4,0-5.1c0-0.9,0.1-1.7,0.2-2.5c0.1-0.8,0.2-1.7,0.3-2.5l0.9,0.3
													c-0.8,1.2-1.7,2.5-2.8,3.6c0.5-1.4,1.2-2.8,1.9-4.1l1-2l-0.1,2.3c0,0.9-0.1,1.7-0.2,2.5c-0.1,0.8-0.2,1.7-0.3,2.5
													C284.8,167.9,284.5,169.5,284,171.2z"/>
											</g>
										</g>
									</g>
									<g>
										<g>
											<g>
												<path class="st8" d="M286.3,125.8l7.9,14.8c0.3,0.6,1.1,0.9,1.8,0.8c1.5-0.4,3.8-1.3,4.3-3.2c0.8-2.8-6.3-16.6-6.3-16.6
													L286.3,125.8z"/>
												<path class="st19" d="M277.8,106.6l-2.7,0.8c-0.8,0.2-1.3,1-1.2,1.9c0.4,2.4,1.4,7.7,4.5,14.7c0.3,0.8,1.2,1.2,2,0.9
													l2.4-0.7L277.8,106.6z"/>
												<g>
													<path class="st1" d="M290.9,99.5l-12.6,3.8c-1.8,0.6-1.8,6.2,0.2,12.7c1.9,6.5,5,11.3,6.8,10.7l12.6-3.8L290.9,99.5z"
														/>
													<path class="st13" d="M297.8,110.2c1.9,6.5,2,12.2,0.2,12.7c-1.8,0.6-4.9-4.2-6.8-10.7c-1.9-6.5-2-12.2-0.2-12.7
														C292.8,99,295.9,103.7,297.8,110.2z"/>
												</g>
												<path class="st8" d="M314.6,84.4l-23.3,17.9l0.1,1.6c0.3,6.1,2.3,12.1,5.5,17.2l0,0l29,0.2L314.6,84.4z"/>
												<path class="st20" d="M330,100c3.1,10.3,1.8,19.8-2.9,21.2c-3.6,1.1-8.2-3-11.6-9.7c-1-1.9-1.8-4.1-2.5-6.4
													c-0.6-2.1-1.1-4.2-1.3-6.1c-1.1-7.7,0.5-14,4.3-15.1C320.6,82.4,326.9,89.6,330,100z"/>
												<path class="st21" d="M320.4,102.8c1.9,6.4,2.1,12.5,0.9,16.5c-3.2-2.7-6.4-7.9-8.3-14.3c-1.9-6.4-2.1-12.5-0.9-16.5
													C315.3,91.2,318.5,96.4,320.4,102.8z"/>
												<g>
													<path class="st22" d="M320.5,98.2l2.5,8.4l-7.5,4.9c-1-1.9-1.8-4.1-2.5-6.4c-0.6-2.1-1.1-4.2-1.3-6.1L320.5,98.2z"/>
													<path class="st1" d="M323.7,101.8c0.7,2.3,0.4,4.5-0.7,4.8c-1.1,0.3-2.5-1.3-3.2-3.6c-0.7-2.3-0.4-4.5,0.7-4.8
														C321.5,97.9,323,99.5,323.7,101.8z"/>
												</g>
											</g>
											<g>
												<g>
													<path class="st5" d="M293.7,101c0.4,1.8,0.8,3.5,1.2,5.3c0.4,1.7,0.9,3.5,1.4,5.2c0.5,1.7,1.1,3.4,1.9,5
														c0.7,1.6,1.6,3.2,2.6,4.7c-1.4-1.2-2.5-2.7-3.4-4.3c-0.9-1.6-1.6-3.3-2.2-5.1c-0.5-1.7-0.9-3.5-1.2-5.3
														C293.8,104.6,293.6,102.8,293.7,101z"/>
												</g>
												<g>
													<path class="st5" d="M283.6,124.3c1.6-1,3.3-1.6,5.1-2.1c1.8-0.5,3.5-0.9,5.4-1c-1.6,1-3.3,1.6-5.1,2.1
														C287.2,123.8,285.4,124.2,283.6,124.3z"/>
												</g>
												<g>
													<path class="st5" d="M322.6,101.9c0.1,0.4,0.2,0.8,0.2,1.2c0,0.2,0.1,0.4,0,0.7c0,0.2,0,0.5-0.4,0.7
														c-0.5,0.1-0.7-0.2-0.9-0.3c-0.2-0.2-0.3-0.4-0.5-0.6c-0.3-0.4-0.4-0.8-0.5-1.3c-0.1-0.4-0.1-0.9-0.1-1.4
														c0-0.2,0.1-0.5,0.2-0.7c0.1-0.2,0.2-0.6,0.7-0.7c0.5,0,0.6,0.3,0.7,0.5c0.1,0.2,0.2,0.4,0.3,0.6
														C322.4,101.1,322.5,101.5,322.6,101.9z M322.6,101.9c-0.1-0.4-0.3-0.8-0.5-1.1c-0.1-0.2-0.3-0.3-0.4-0.5
														c-0.1-0.1-0.4-0.2-0.3-0.1c0,0,0,0.1,0,0.3c0,0.2,0,0.3,0,0.5c0.1,0.4,0.1,0.7,0.2,1.1c0.1,0.4,0.2,0.7,0.3,1.1
														c0.1,0.2,0.1,0.3,0.2,0.5c0.1,0.2,0.2,0.2,0.2,0.3c0,0.1,0.2-0.1,0.2-0.3c0.1-0.2,0.1-0.4,0.1-0.6
														C322.7,102.8,322.7,102.3,322.6,101.9z"/>
												</g>
												<g>
													<path class="st5" d="M316.6,84.6c1.9,0.4,3.6,1.2,5.2,2.4c0.8,0.6,1.5,1.3,2.1,2c0.6,0.8,1.1,1.6,1.6,2.4
														c2,3.2,3.5,6.7,4.7,10.4c1.1,3.6,1.8,7.5,1.2,11.4c-0.3,1.9-0.9,3.8-2,5.4c-0.6,0.8-1.3,1.5-2.3,1.8
														c-0.9,0.4-2,0.3-2.8-0.1c0.9,0.3,1.9,0.2,2.7-0.2c0.8-0.4,1.4-1.1,1.9-1.8c0.9-1.6,1.4-3.4,1.6-5.2
														c0.4-3.6-0.3-7.4-1.4-10.9c-1.1-3.5-2.6-7-4.4-10.3c-0.5-0.8-0.9-1.6-1.4-2.4c-0.5-0.7-1.1-1.4-1.8-2
														C320,86.2,318.4,85.2,316.6,84.6z"/>
												</g>
											</g>
										</g>
										<path class="st17" d="M289.6,141.5c0,0-2.7-6-2.5-7.4c0.3-1.4,3.4-4.7,4.8-4.2c1.5,0.5-0.8,4.8-0.8,4.8s3.6,4.4,3.2,6.7
											S289.6,141.5,289.6,141.5z"/>
									</g>
								</g>
								<path class="st6" d="M263,136.6c0,0,11.9,6.3,13.9,8.7c2,2.5,7.5,14,7.5,14l-11.9,15.9C272.6,175.4,259.9,156.5,263,136.6z"
									/>
							</g>
							<g>
								<g>
									<path class="st17" d="M265.4,140.8c-0.5-0.8-0.7-1.7-0.6-2.4c-0.7-0.5-1.3-1-1.8-1.7c-0.2-0.8-0.7-2.6-1.1-4.7
										c-0.3-1.9-0.6-3.9-0.4-5.5v0c0.1-0.8,0.2-1.5,0.5-2L244,114.3c0,0.1,0,0.1,0,0.2c0.3,1.7,2.5,14.8,0.2,21.8
										c-1.4,0.6-3,1.1-5.1,1.1c-2.2,0.1-4.4,0.9-6,2.4c-1.8,1.7-3.3,4.4-3.3,9.1c1.7,0.2,3.3,0.5,5,0.8c4.9,0.9,9.8,1.8,14.8,2.6
										c6.4,1.1,12.9,1.3,19.3,2C268.6,149.6,267.7,144.6,265.4,140.8z"/>
									<path class="st23" d="M261.9,132c-9.8,1.2-14.8-10.5-15-10.9c1.8,2.9,4.4,4.3,7,5c3.2,0.9,6.2,0.6,7.5,0.4c0,0,0,0,0.1,0
										C261.4,128.1,261.6,130.1,261.9,132z"/>
								</g>
								<g>
									<path class="st6" d="M243.8,136.1c0,0,11.6,12.8,15,10.8c3.4-2,4.3-9.9,4.3-9.9s11.7,10.1,13.3,13.4
										c1.6,3.3,1.5,9.7-2.6,19.8c-4.1,10.1-2.6,23.7-2.6,23.7h-37.4c0,0,3.1-6.5,2.2-14.2c-1-7.6-9.9-32-9.9-32
										S224.4,136.5,243.8,136.1z"/>
									<g>
										<g>
											<path class="st5" d="M243.5,137.5c1.9,2,3.8,3.8,5.8,5.6c1,0.9,2,1.7,3.1,2.5c1.1,0.8,2.2,1.4,3.4,1.9
												c1.2,0.5,2.4,0.6,3.5,0.1c1.1-0.4,2-1.4,2.6-2.5c0.6-1.1,1-2.4,1.3-3.7c0.3-1.3,0.4-2.7,0.5-4c0.3,2.7,0.2,5.5-1,8.1
												c-0.6,1.3-1.5,2.5-3,3.2c-0.7,0.3-1.5,0.5-2.2,0.4c-0.8,0-1.5-0.2-2.2-0.5c-2.7-1.1-4.8-2.9-6.8-4.8
												C246.8,141.8,245,139.7,243.5,137.5z"/>
										</g>
										<g>
											<path class="st5" d="M270.5,152.6c0.4,0.9,0.8,1.7,1.2,2.6c0.4,0.9,0.9,1.7,1.3,2.5c0.9,1.7,1.7,3.5,1.9,5.5
												c0.2,2-0.1,4-0.6,5.8c-0.5,1.9-1.3,3.6-2.2,5.3c0.4-1.9,0.9-3.7,1.3-5.5c0.3-1.8,0.6-3.7,0.3-5.5
												c-0.2-1.8-0.9-3.5-1.6-5.3c-0.4-0.9-0.7-1.8-1-2.7C270.9,154.4,270.6,153.5,270.5,152.6z"/>
										</g>
										<g>
											<path class="st5" d="M253,174c1.3-0.6,2.7-0.7,4.1-0.6c1.4,0.1,2.8,0.5,3.9,1.3c-1.4,0.1-2.7-0.1-4-0.2
												C255.7,174.4,254.4,174.3,253,174z"/>
										</g>
									</g>
								</g>
							</g>
							<g>
								<g>
									<g>
										<path class="st17" d="M222.3,170.7c-0.8-0.7-1.5-1.4-2.3-2.1c-3.5-3.3-7.1-6.5-10.6-9.8c-1,1.1-2,2.1-2.9,3.3
											c-2.2,2.5-4.5,5.2-6.8,8.1c-2.9,3.7-3,8.8-0.3,12.6c1.8,2.5,3.7,5,5.7,7.4c5.9,7.1,12.6,13.8,20.3,19.4l4.8-4.5
											c0,0-6.7-11.9-14.7-26.6C217.7,175.7,220,173.1,222.3,170.7z"/>
										<path class="st17" d="M225,208.1c0,0,2.5,10.4,5.1,13.4c0.2,0.2,0.4,0.1,0.5-0.1c0.1-0.5,0.1-1.7-0.9-4.2
											c0,0,3.3,4.6,4.3,4.8c1,0.2-2.3-6.3-2.3-6.3s4.2,4.8,5.1,4.6c0.9-0.2-3.1-6.2-3.1-6.2s4.6,4.7,4.9,4.3
											c0.8-1.1-5.5-7.9-4.7-8.5c0.7-0.5,2.8,0.4,3.8,1.1c0.2,0.1,0.5,0.1,0.6-0.1c0.2-0.4,0.4-1.2-0.6-2
											c-1.5-1.2-4.8-3.7-9.8-4.5L225,208.1z"/>
									</g>
									<g>
										<path class="st5" d="M212.2,175.2c0.8,0.2,1.4,0.6,2,1.2c0.5,0.5,1,1.1,1.2,2c-0.8-0.2-1.4-0.6-2-1.2
											C212.9,176.7,212.4,176.1,212.2,175.2z"/>
									</g>
								</g>
								<g>
									<path class="st6" d="M206.1,161.5l13.6,12.5l17.2-17.7c0,0,1.1-18.4-2.6-18.7C228.9,137.1,211.3,154,206.1,161.5z"/>
									<polygon class="st5" points="231.1,162.2 238.1,155.7 233,168.3 									"/>
								</g>
							</g>
						</g>
						<g>
							<g>
								<path class="st17" d="M271.2,110c-0.2-5.3-0.8-10.8-2.7-15.5c-2.4-6.1-13.5-8.4-21.2-1.7c-3.6,3.1-4.4,8.8-4.1,14
									c-0.2-0.1-0.4-0.2-0.5-0.2c-1.6-0.4-3.2,0.8-3.6,2.3c-0.4,1.2-0.1,2.5,0.6,3.6c0.6,0.9,1.5,1.7,2.4,2
									c0.2,0.1,1.3,0.3,2.1,0.2c0.7,3.4,2.5,6.6,5.2,8.8c3.4,2.8,7.7,3.9,12,3c3.4-0.7,8.3-2.8,9.5-6.3c0.3-0.9,0.4-1.9,0.4-2.9
									c0-0.2,0-0.4,0-0.7C271.3,114.5,271.3,112.2,271.2,110z"/>
								<g>
									<g>
										<path class="st23" d="M271.2,116.6c-0.3,0.1-0.6,0.1-0.9,0.1c-1.9,0-3.4-1.5-3.4-3.4c0-1.9,1.5-3.4,3.4-3.4
											c0.3,0,0.6,0,0.8,0.1C271.3,112.2,271.3,114.5,271.2,116.6z"/>
										<path class="st23" d="M249.8,113.3c0,1.9,1.5,3.4,3.4,3.4c1.9,0,3.4-1.5,3.4-3.4c0-1.9-1.5-3.4-3.4-3.4
											C251.3,109.9,249.8,111.4,249.8,113.3z"/>
									</g>
									<g>
										<g>
											<path class="st5" d="M265.1,106.6c0,1.1,0.4,2,1,2c0.5,0,1-0.9,1-2c0-1.1-0.4-2-1-2C265.5,104.6,265.1,105.5,265.1,106.6
												z"/>
											<path class="st5" d="M268.1,104c-0.2,0.3-0.4,0.6-0.7,0.9c-0.3,0.3-0.6,0.4-1,0.5l0,0c-0.2,0-0.4-0.1-0.4-0.3
												c0-0.2,0.1-0.4,0.3-0.4c0,0,0.1,0,0.1,0c0.6,0,1.2-0.3,1.6-0.8l0,0c0,0,0.1-0.1,0.2,0C268.1,103.8,268.1,103.9,268.1,104
												z"/>
										</g>
										<g>
											<g>
												<path class="st5" d="M253.9,106.4c0.4,0.5,1,0.8,1.6,0.8c0.2,0,0.4,0.2,0.4,0.4c0,0.2-0.2,0.4-0.4,0.4c0,0-0.1,0-0.1,0
													l0,0c-0.4-0.1-0.8-0.3-1-0.5c-0.3-0.3-0.5-0.5-0.7-0.9c0-0.1,0-0.1,0.1-0.2C253.8,106.3,253.8,106.3,253.9,106.4
													L253.9,106.4z"/>
											</g>
											<path class="st5" d="M255.2,107.2c0.3-0.4,0.7-0.6,1.1-0.8c0.4-0.2,0.9-0.3,1.4-0.2c0.5,0,0.9,0.2,1.3,0.4
												c0.2,0.1,0.4,0.2,0.6,0.3l0.5,0.4c0.1,0.1,0.1,0.2,0,0.3c-0.1,0.1-0.2,0.1-0.3,0l0,0l-0.5-0.3c-0.2-0.1-0.3-0.2-0.5-0.3
												c-0.3-0.2-0.7-0.2-1.1-0.2c-0.4,0-0.7,0.1-1,0.3c-0.3,0.2-0.6,0.4-0.8,0.7l0,0c-0.1,0.2-0.4,0.2-0.6,0.1
												C255.1,107.7,255,107.4,255.2,107.2C255.2,107.2,255.2,107.2,255.2,107.2z"/>
										</g>
									</g>
									<g>
										<path class="st5" d="M265.5,112.8c-0.3,0.7-0.9,1.3-1.5,1.7c-0.6,0.5-1.4,0.7-2.2,0.7c-0.8,0-1.6-0.3-2.2-0.8
											c-0.3-0.2-0.6-0.5-0.9-0.8c-0.2-0.3-0.5-0.6-0.7-0.9c0.3,0.2,0.6,0.5,0.9,0.7c0.3,0.2,0.6,0.4,0.9,0.6
											c0.6,0.4,1.3,0.5,2,0.6c0.7,0,1.4-0.2,2-0.5C264.4,113.8,265,113.3,265.5,112.8z"/>
										<path class="st5" d="M262.8,116.4c-0.3,0.3-0.7,0.3-1,0.4c-0.4,0-0.8-0.1-1-0.4c0.4,0.1,0.7,0.1,1,0.1
											C262.1,116.5,262.5,116.5,262.8,116.4z"/>
									</g>
									<g>
										<path class="st5" d="M259.3,99.6c-0.5-0.4-1-0.5-1.5-0.6c-0.5,0-1.1,0.1-1.6,0.2c-0.5,0.2-1,0.5-1.4,0.8
											c-0.4,0.3-0.7,0.8-1,1.3c-0.1,0.2,0,0.5,0.2,0.6c0.2,0.1,0.4,0.1,0.6-0.1l0,0c0.3-0.3,0.6-0.6,1-0.8
											c0.3-0.2,0.7-0.3,1.1-0.4c0.4-0.1,0.8-0.1,1.2-0.1c0.4,0,0.8,0,1.3-0.1l0.1,0c0.3-0.1,0.4-0.3,0.4-0.6
											C259.4,99.7,259.4,99.6,259.3,99.6z"/>
										<path class="st5" d="M264.3,99.6c0.5-0.4,1-0.5,1.5-0.6c0.5,0,1.1,0.1,1.6,0.2c0.5,0.2,1,0.5,1.4,0.8
											c0.4,0.3,0.7,0.8,1,1.3c0.1,0.2,0,0.5-0.2,0.6c-0.2,0.1-0.4,0.1-0.6-0.1l0,0c-0.3-0.3-0.6-0.6-1-0.8
											c-0.3-0.2-0.7-0.3-1.1-0.4c-0.4-0.1-0.8-0.1-1.2-0.1c-0.4,0-0.8,0-1.3-0.1l-0.1,0c-0.3-0.1-0.4-0.3-0.4-0.6
											C264.1,99.7,264.2,99.6,264.3,99.6z"/>
									</g>
									<path class="st5" d="M262,103.5c0.2,0.8,0.3,1.5,0.4,2.3c0.1,0.8,0.3,1.5,0.5,2.2c0,0.2,0.1,0.4,0.2,0.5
										c0.1,0.1,0.2,0.4,0.2,0.7c0,0.5-0.3,1-0.7,1.2c-0.4,0.2-0.9,0.2-1.3,0.1c-0.4-0.1-0.7-0.4-1-0.6c0.7,0.3,1.5,0.5,2.1,0.1
										c0.3-0.2,0.4-0.4,0.4-0.7c0-0.1-0.1-0.2-0.1-0.5c-0.1-0.2-0.1-0.4-0.2-0.6c-0.2-0.8-0.3-1.6-0.4-2.3
										C261.9,105.1,261.9,104.3,262,103.5z"/>
									<path class="st5" d="M240.3,110c0-0.5,0.1-1,0.5-1.3c0.4-0.4,1.1-0.3,1.5-0.1c0.5,0.2,0.9,0.5,1.2,0.9
										c0.3,0.4,0.6,0.8,0.8,1.3c0.1,0.2,0,0.4-0.2,0.4c-0.1,0.1-0.3,0-0.4-0.1l0,0c-0.3-0.3-0.7-0.7-1.1-0.8
										c-0.2-0.1-0.3,0-0.5,0.1c-0.1,0.1-0.2,0.3-0.3,0.5c-0.2,0.4-0.3,1,0.1,1.2c0.4,0.2,1,0.2,1.5,0.1c-0.5,0.2-1,0.4-1.7,0.2
										c-0.3-0.1-0.6-0.5-0.6-0.8c0-0.3,0-0.6,0.1-0.9c0.1-0.3,0.2-0.6,0.5-0.8c0.3-0.3,0.7-0.3,1-0.2c0.6,0.2,1.1,0.6,1.5,1
										l-0.6,0.3c-0.3-0.8-0.8-1.6-1.6-2c-0.4-0.2-0.8-0.3-1.2-0.1C240.6,109.1,240.4,109.5,240.3,110z"/>
								</g>
							</g>
							<path class="st5" d="M269.5,96.2c-0.4-1.9-1.2-3.7-2.6-5.2c-2.9-3.2-7.5-4-11.8-4.1c-2.9-0.1-5.8,0.1-8.4,1.4
								c-4.1,2-6.5,6.1-9.5,9.5c-4.5,5.1-10.6,8.7-17.2,10.2c-5.4,1.2-11,1.1-16.6,1.6c-5.5,0.5-11.2,1.8-15.5,5.3
								c-3.3,2.8-5.6,6.8-9.4,8.8c-2.1,1.1-4.6,1.4-7,1.7l-3.9,0.5c-5.7,0.8-9,7.2-6,12.1c0,0,0,0.1,0.1,0.1c2,3.2,5.2,5.7,6.4,9.2
								c1.1,3.3,0.3,6.8,0.6,10.3c0.4,5.4,3.5,10.4,7.7,13.8c4.2,3.4,9.6,5.2,15,5.8c2,0.2,4,0.3,5.9,0.2c-0.3-2.6,0.5-5.3,2.2-7.5
								c2.3-2.9,4.6-5.6,6.8-8.1c0,0,0.1-0.1,0.1-0.1l-0.4-0.4c5.2-7.5,22.8-24.4,28.2-23.9c1.3-0.3,2.6-0.3,3.7,0
								c0.4-0.1,0.8-0.1,1.2-0.1c2.1-0.1,3.7-0.5,5.1-1.1c2.2-6.8,0.2-19.3-0.2-21.6c-0.8,0.1-1.8-0.1-2.1-0.2c-1-0.4-1.9-1.2-2.4-2
								c-0.7-1-0.9-2.4-0.6-3.6c0.4-1.4,1.8-2.5,3.3-2.3c0.7,1.2,1.5,2.2,2.5,3.2c0.3,0.3,0.7,0.6,1.1,0.6c0.5,0,0.9-0.6,1.1-1.1
								c0.3-0.6,0.9-1.3,1.2-1.9c3.9,0.2,7.8-1.5,10.3-4.5c0.8-0.9,1.4-1.9,2-3c0.8-1.4,1.7-2.7,2.5-4.1c1.8,2,4.7,5.7,7.5,6.1
								C270.4,101.9,270.5,99.2,269.5,96.2z"/>
						</g>
					</g>
				</g>
			</g>
		</g>
		<g>
			<g>
				<g>
					<path class="st18" d="M139,281.1c-1.4,0.5-2.6,0.9-3.4,1.2c0,0,0,0,0,0c-1.9-1-3.6-1.1-4.5-1.2c-0.6,0-0.8,0.3-0.9,0.5
						c0,0.1,0,0.2,0.2,0.2c0.6,0.1,1.7,0.4,1.8,0.8c0.1,0.5-4.5,0.9-4.5,1.6c0,0.3,3.2,0,3.2,0s-3.4,0.9-3.2,1.3
						c0.3,0.4,3.4,0,3.4,0s-3.3,1.3-2.9,1.6c0.4,0.3,3.1-0.4,3.1-0.4c-1.2,0.6-1.5,1-1.7,1.3c-0.1,0.1,0,0.2,0.1,0.2
						c1.2-0.2,3.3-1.4,4.7-2.3l0,0l0,0c1.9,0.2,3.8,0.2,5.7,0.2C139.9,284.6,139.4,282.8,139,281.1z"/>
					<path class="st6" d="M159.9,259.1l-8.4,17.3l-15.5,5.2l0.6,5.2c0,0,18.4-1.1,21.4-4.1c3-3,8.6-17.3,8.8-18.7
						C166.9,262.6,159.9,259.1,159.9,259.1z"/>
				</g>
				<path class="st6" d="M165,256.6c0,0-3.9,4-3.7,7.1c0.2,3.1,0.4,20.2,0.4,20.2l-1.6,0.8l-3.3-1.2c0,0,1.6-18.1,1.6-20
					c0.1-1.9,0.6-4.9,2.5-5.7C162.8,257,165,256.6,165,256.6z"/>
			</g>
			<g>
				<g>
					<g>
						<path class="st24" d="M114.7,291.3c-6.9,0.9-11.6,1.5-11.6,1.5l-1.5,6.6l13.8,0.2C115,296.8,114.8,294,114.7,291.3z"/>
					</g>
					<path class="st6" d="M104.1,292.5c0,0-1.5-1.5-2.1-2.9c-0.6-1.3-0.3-7.4-3.3-7v13.9l1.2,1.2h-1.4v2.8c0,0,3.1,1.1,5,0.1
						c0,0-1.8-2-1-4.2C103.3,294.2,104.1,292.5,104.1,292.5z"/>
					<path class="st4" d="M111.1,290.8v9.3h66.2c0,0-2.3-13.4-7.7-15.1C164.3,283.4,111.1,290.8,111.1,290.8z"/>
				</g>
				<g>
					<g>
						<g>
							<path class="st25" d="M116.4,289.2l-9.7,5.4l-0.8,4.6l2.2,2.6l2.1-0.7c0,0,0,0,0.1,0c0.7-0.3,4.7-1.9,10.3-4.3
								C119.2,294.3,117.7,291.8,116.4,289.2z"/>
						</g>
						<path class="st6" d="M107,293.7c0,0-2-0.7-3.2-1.6c-1.1-0.9-3.6-6.4-6.1-4.7l6.4,12.4l1.7,0.5l-1.2,0.6l1.3,2.5
							c0,0,3.2-0.5,4.4-2.2c0,0-2.5-1-2.8-3.3C107.2,295.6,107,293.7,107,293.7z"/>
					</g>
					<g>
						<path class="st4" d="M111,291.4l3.9,8l24.4-9.7c0,0,28.1,15.6,35.7,12.7c7.6-3,8-17.5,4.9-19.2c-3.1-1.7-19.8,0.6-19.8,0.6
							l-0.9,0.7c0,0-16.7-7.1-20.6-6.8C134.6,277.8,111,291.4,111,291.4z"/>
						<g>
							<g>
								<path class="st5" d="M115.2,299.1c3.9-2,7.9-3.7,11.9-5.3c4-1.6,8.1-3.1,12.3-4.4l-0.1,0.3c-0.4-0.6-0.8-1.2-1.2-1.7
									c0.5,0.5,1,1,1.5,1.5l0.2,0.2l-0.2,0.1c-3.9,1.9-7.9,3.5-12,5.1C123.5,296.4,119.4,297.9,115.2,299.1z"/>
							</g>
							<g>
								<path class="st5" d="M161.9,300.1c-3.9-1.3-7.7-3-11.5-4.7c-3.7-1.8-7.4-3.6-11-5.8c3.9,1.3,7.7,3,11.5,4.7
									C154.7,296.1,158.4,297.9,161.9,300.1z"/>
							</g>
							<g>
								<path class="st5" d="M159.4,284.6c1.3,0.2,2.5,0.7,3.6,1.3c1.1,0.6,2.2,1.3,3,2.3c-1.3-0.2-2.5-0.7-3.6-1.3
									C161.3,286.2,160.3,285.6,159.4,284.6z"/>
							</g>
							<g>
								<path class="st5" d="M167.7,286.8c-1.1,0.3-2.1,0.2-3.1,0.1c-1-0.2-2-0.5-2.9-1.1c1.1-0.3,2.1-0.2,3.1-0.1
									C165.8,285.9,166.8,286.2,167.7,286.8z"/>
							</g>
						</g>
					</g>
				</g>
			</g>
			<g>
				<g>
					<g>
						<path class="st25" d="M179.7,258.2c-0.8-0.8-1.9-1.1-3-1.2c-1,0-1.8-0.3-2.5-0.6c-1.1-3.4,0-9.9,0.1-10.7c0,0,0-0.1,0-0.1
							l-8.9,5c0.1,0.2,0.2,0.6,0.3,1v0c0.1,0.8,0,1.8-0.2,2.7c-0.2,1-0.4,1.9-0.5,2.3c-0.7,0.9-1.7,1.3-3,2c0,0.3,0,0.7-0.1,1
							c-0.4,2.1,0.3,5,0.2,7.1c-0.1,2.5-0.2,5-0.2,7.5c0,3.1,0.2,6.1,0.4,9.1h16.8c-0.5-4.5,0.7-11.2,1.9-18.5
							C181.8,261.2,180.9,259.2,179.7,258.2z"/>
						<path class="st26" d="M165.6,254.3c4.8,0.6,7.3-5.2,7.4-5.4c-0.9,1.4-2.2,2.1-3.4,2.5c-1.6,0.4-3.1,0.3-3.7,0.2c0,0,0,0,0,0
							C165.8,252.4,165.7,253.4,165.6,254.3z"/>
					</g>
					<path class="st3" d="M165,256.8c0,0-1.9,3.9-0.5,4.8c1.4,0.9,9.9-5.2,9.9-5.2s4.6,0.5,5.9,3.8s-0.5,23.5-0.5,23.5
						s-15.7,1-19.6,0c0,0,0.1-10-0.4-13.1c-0.5-3.1-0.2-8.4,0.8-10.6C161,258.9,165,256.8,165,256.8z"/>
				</g>
				<g>
					<g>
						<path class="st6" d="M174.5,256.2c0,0-7.3,3.4-6.5,7.1c0.7,3.7,3.9,40.2,3.9,40.2s9.5,0.3,13.1-1.5c3.6-1.8-4.5-26.8-4.1-29.1
							c0.4-2.4,2.6-12.9-0.5-14.8C177.3,255.9,174.5,256.2,174.5,256.2z"/>
						<g>
							<path class="st5" d="M172.3,299.9c2.2,0.6,4.3,1,6.5,1.1c1.1,0,2.2-0.1,3.2-0.3c1.1-0.2,2.1-0.5,3.2-0.8
								c-0.9,0.7-1.9,1.4-3,1.7c-0.5,0.2-1.1,0.3-1.7,0.4c-0.6,0.1-1.2,0.1-1.8,0.1c-1.2,0-2.3-0.2-3.4-0.6
								C174.3,301.1,173.2,300.6,172.3,299.9z"/>
						</g>
					</g>
					<g>
						<g>
							
								<rect x="145.4" y="258.6" transform="matrix(-0.7096 0.7047 -0.7047 -0.7096 435.0105 346.2757)" class="st5" width="1.4" height="8.4"/>
							<path class="st25" d="M145.3,266.8c0,0,0.3,0.6,0.6,0.7c0.2,0.1,1.5,0.4,1.6,0.4c0,0,0,0,0,0c0.1,0,1.2,1,3,2.5
								c0.5-0.7,1.1-1.4,1.7-2.2c0.4-0.5,0.8-1,1.1-1.5c-0.8-0.3-1.4-0.6-1.9-0.9l-1.1-0.9c-0.5-0.6-1.9-2.9-2.6-2.9
								c-0.8,0.1-0.8,0.4-0.8,0.4s1.3,1.6,1,2.2c-0.3,0.6-3-2.4-3-2.4l-0.7-0.6c0,0-0.1,1.7,0.5,2.2c0,0-0.4,0.9,0.3,1.6
								C144.8,265.6,144.9,266.5,145.3,266.8z"/>
						</g>
						<g>
							<path class="st6" d="M173.8,258.8l-5.5,13.8l-17.7-7.6c0,0-3.1,3.9-2.8,4c0.3,0.1,15.9,15.3,22.5,14.2
								c6.5-1.1,10.9-20.3,10.9-20.3L173.8,258.8z"/>
							<g>
								<path class="st5" d="M170.1,283.3c0,0,2-0.2,3.3-2c1.3-1.8,5.9-11.2,5.9-11.2S176.7,286.4,170.1,283.3z"/>
								<g>
									<path class="st5" d="M171,273.9c-0.6,0-1.1-0.1-1.6-0.2c-0.5-0.2-1-0.4-1.4-0.6l-1.4-0.8l1.5-0.3c0.7-0.1,1.4-0.2,2.2,0
										c-0.6,0.5-1.2,0.9-1.9,1.1l0.1-1c0.5,0.2,0.9,0.4,1.4,0.7C170.3,273.1,170.7,273.4,171,273.9z"/>
								</g>
								<g>
									<path class="st5" d="M152.8,273.4c1.5,0.6,2.8,1.4,4,2.3c1.2,0.9,2.3,2,3.3,3.3c-1.5-0.6-2.8-1.4-4-2.3
										C154.8,275.7,153.7,274.7,152.8,273.4z"/>
								</g>
								<g>
									<path class="st5" d="M155.9,267.2c0.8-0.1,1.4,0,2,0.3c0.6,0.3,1.1,0.7,1.5,1.3c-0.8,0.1-1.4,0-2-0.3
										C156.8,268.3,156.3,267.9,155.9,267.2z"/>
								</g>
								<g>
									<path class="st5" d="M171.2,262.2c0-0.6,0.1-1.3,0.4-1.8c0.2-0.6,0.6-1.1,1-1.6c0.4-0.5,1-0.9,1.6-1.1
										c0.6-0.2,1.3-0.2,1.9,0c-0.6,0.2-1.1,0.5-1.5,0.8c-0.4,0.3-0.8,0.7-1.2,1.1c-0.4,0.4-0.7,0.8-1.1,1.3
										C172,261.2,171.6,261.7,171.2,262.2z"/>
								</g>
							</g>
						</g>
					</g>
				</g>
			</g>
			<g>
				<g>
					<path class="st25" d="M176.8,242.9c-0.2-0.7-1-1.3-1.8-1.1c-0.1,0-0.1,0-0.2,0.1c0.1-2.5-0.3-5.3-2-6.9
						c-3.8-3.3-9.3-2.2-10.4,0.8c-1.3,3.4-1.4,7.6-1.4,11.2c0,0.5,0,1,0.2,1.4c0.6,1.7,3.1,2.8,4.7,3.1c2.1,0.4,4.3-0.1,5.9-1.5
						c1.3-1.1,2.2-2.6,2.5-4.3c0.4,0,0.9-0.1,1-0.1c0.5-0.2,0.9-0.6,1.2-1C176.9,244.2,177,243.5,176.8,242.9z"/>
					<g>
						<g>
							<g>
								<g>
									<path class="st5" d="M163.8,241.8c0,0.6-0.2,1-0.5,1c-0.3,0-0.5-0.4-0.5-1c0-0.6,0.2-1,0.5-1
										C163.6,240.8,163.8,241.3,163.8,241.8z"/>
								</g>
								<g>
									<ellipse class="st5" cx="167.5" cy="241.8" rx="0.5" ry="1"/>
								</g>
							</g>
						</g>
						<g>
							<g>
								<path class="st5" d="M163.6,244.9c0.2,0.3,0.4,0.6,0.7,0.8c0.3,0.2,0.7,0.4,1.1,0.4c0.4,0,0.8-0.1,1.1-0.4
									c0.2-0.1,0.3-0.3,0.4-0.4c0.1-0.1,0.2-0.3,0.3-0.5c-0.2,0.1-0.3,0.2-0.4,0.3c-0.2,0.1-0.3,0.2-0.4,0.3
									c-0.3,0.2-0.6,0.3-1,0.3c-0.3,0-0.7-0.1-1-0.3C164.1,245.3,163.8,245.1,163.6,244.9z"/>
								<path class="st5" d="M164.9,246.6c0.1,0.1,0.3,0.2,0.5,0.2c0.2,0,0.4-0.1,0.5-0.2c-0.2,0-0.3,0.1-0.5,0.1
									C165.2,246.7,165.1,246.7,164.9,246.6z"/>
							</g>
						</g>
						<g>
							<g>
								<path class="st5" d="M166.6,238.3c0.2-0.2,0.5-0.3,0.8-0.3c0.3,0,0.5,0,0.8,0.1c0.3,0.1,0.5,0.2,0.7,0.4
									c0.2,0.2,0.4,0.4,0.5,0.6c0.1,0.1,0,0.3-0.1,0.3c-0.1,0.1-0.2,0-0.3,0l0,0c-0.2-0.1-0.3-0.3-0.5-0.4
									c-0.2-0.1-0.3-0.2-0.5-0.2c-0.2,0-0.4-0.1-0.6-0.1c-0.2,0-0.4,0-0.6,0l-0.1,0c-0.1,0-0.2-0.2-0.2-0.3
									C166.6,238.4,166.6,238.4,166.6,238.3z"/>
								<path class="st5" d="M164.2,238.3c-0.2-0.2-0.5-0.3-0.8-0.3c-0.3,0-0.5,0-0.8,0.1c-0.3,0.1-0.5,0.2-0.7,0.4
									c-0.2,0.2-0.4,0.4-0.5,0.6c-0.1,0.1,0,0.3,0.1,0.3c0.1,0.1,0.2,0,0.3,0l0,0c0.2-0.1,0.3-0.3,0.5-0.4
									c0.2-0.1,0.3-0.2,0.5-0.2c0.2,0,0.4-0.1,0.6-0.1c0.2,0,0.4,0,0.6,0l0.1,0c0.1,0,0.2-0.2,0.2-0.3
									C164.2,238.4,164.2,238.4,164.2,238.3z"/>
							</g>
						</g>
						<path class="st5" d="M164.4,240.2c-0.1,0.4-0.2,0.8-0.2,1.1c-0.1,0.4-0.1,0.7-0.2,1.1c0,0.1-0.1,0.2-0.1,0.3
							c0,0.1-0.1,0.2-0.1,0.3c0,0.3,0.1,0.5,0.4,0.6c0.2,0.1,0.4,0.1,0.6,0c0.2-0.1,0.4-0.2,0.5-0.3c-0.4,0.1-0.8,0.2-1,0
							c-0.1-0.1-0.2-0.2-0.2-0.4c0-0.1,0-0.1,0.1-0.2c0-0.1,0.1-0.2,0.1-0.3c0.1-0.4,0.2-0.8,0.2-1.2
							C164.5,241,164.5,240.6,164.4,240.2z"/>
						<path class="st5" d="M176.3,243.4c0-0.2-0.1-0.5-0.3-0.7c-0.2-0.2-0.5-0.2-0.8-0.1c-0.2,0.1-0.5,0.3-0.6,0.4
							c-0.2,0.2-0.3,0.4-0.4,0.6c0,0.1,0,0.2,0.1,0.2c0.1,0,0.1,0,0.2,0l0,0c0.2-0.2,0.4-0.3,0.6-0.4c0.1,0,0.2,0,0.2,0
							c0.1,0,0.1,0.2,0.2,0.3c0.1,0.2,0.1,0.5-0.1,0.6c-0.2,0.1-0.5,0.1-0.7,0.1c0.2,0.1,0.5,0.2,0.8,0.1c0.2-0.1,0.3-0.2,0.3-0.4
							c0-0.2,0-0.3,0-0.4c0-0.1-0.1-0.3-0.2-0.4c-0.1-0.1-0.4-0.2-0.5-0.1c-0.3,0.1-0.5,0.3-0.7,0.5l0.3,0.2c0.2-0.4,0.4-0.8,0.8-1
							c0.2-0.1,0.4-0.1,0.6,0C176.1,242.9,176.2,243.1,176.3,243.4z"/>
					</g>
				</g>
				<path class="st5" d="M177.2,239.3c-0.3-0.9-0.7-2-1.7-2.2c0.4-0.8,0.4-1.8,0-2.6c-0.3-0.7-0.9-1.3-1.6-1.7c-0.9-0.6-1.9-1-3-1.2
					c-1.6-0.2-3.3,0.1-4.9,0.4c-0.8,0.2-1.9,0.3-2.7,0.5c-0.8-0.7-2.2-0.3-2.9,0.5c-0.7,0.8-0.9,2-0.8,3c0.1,2.1,0.7,4.2,1.5,6.1
					c0.1-0.8,0.1-1.6,0.3-2.4c0.3-0.9,0.8-1.7,1.5-2.4c2,2.1,5.3,2.8,8,1.8c0.1,0.7,0.3,1.3,0.5,1.9c0.3,0.7,0.9,1.5,1.7,1.6
					c0.3,0.1,0.8,0,0.9-0.4c0.1-0.3,0.9-0.6,0.9-0.6c0.1,0,0.2-0.1,0.2-0.1c0.8-0.2,1.6,0.4,1.8,1.1c0.2,0.6,0.1,1.2-0.3,1.7
					c-0.3,0.4-0.7,0.8-1.2,1c-0.1,0-0.7,0.1-1,0.1c-0.2,0.9-0.5,1.7-1,2.5c0.7,0.1,1.3,0,1.9-0.3c0.8-0.4,1.3-1.3,1.7-2.2
					c0.4-0.8,0.7-1.5,0.8-2.4C178.1,242,177.7,240.6,177.2,239.3z"/>
			</g>
		</g>
		<g class="st2">
			<path class="st3" d="M127.3,135.6c-1.6-1.9-3.9-3.1-6.4-3.1c-2.9,0-6,1.4-8.6,0.2c-3.5-1.7-3.8-7.2-7.4-8.8
				c-2.5-1.1-5.3,0.2-8,0.7c-4.5,0.9-9.5-1-12.4-4.6c-1.1-1.4-1.9-3-3.2-4.3c-2.4-2.4-6.1-3.1-9.3-2.2c-3.2,0.9-5.9,3.3-7.5,6.3
				c-1.2,2.3-2.2,5.1-4.5,6c-2.7,1.1-6-0.9-8.7,0.2c-2,0.8-3.1,3-3.2,5.1c-0.1,1.5,0.3,3,0.7,4.4H127.3z"/>
			<path class="st3" d="M459.7,170.6c-0.5-1.3-1.8-2.4-3.1-2.8c-1.9-0.6-4-0.5-5.7-1.5c-2-1.1-3.6-3.6-5.7-3.4
				c-1.8,0.2-3,2.2-4.8,2.5c-3.6,0.8-6-5.2-9.6-5.2c-2.2,0-4,2.2-6.2,2.3c-2.8,0.1-4.7-3.2-6.4-5.7c-2.6-3.8-7-7-10.8-4.9
				c-2.5,1.4-3.8,4.5-5.2,7.3c-1.4,2.8-3.4,5.6-6.2,5.7c-2.9,0-5.9-3.2-8.4-1.6c-1.2,0.8-1.8,2.4-1.8,4c0,1.1,0.2,2.2,0.6,3.2H459.7
				z"/>
		</g>
	</g>
</g>
</svg>
